HIERARCHY
ROOT ui
{
	 OFFSET 0 0 0
	 CHANNELS 3 XPosition YPosition Z Position
	 EndSite
	 {
	 OFFSET 0 -1 0
	 }
}
ROOT li
{
	 OFFSET 0 0 0
	 CHANNELS 3 XPosition YPosition Z Position
	 EndSite
	 {
	 OFFSET 0 -1 0
	 }
}
ROOT ul
{
	 OFFSET 0 0 0
	 CHANNELS 3 XPosition YPosition Z Position
	 EndSite
	 {
	 OFFSET 0 -1 0
	 }
}
ROOT ll
{
	 OFFSET 0 0 0
	 CHANNELS 3 XPosition YPosition Z Position
	 EndSite
	 {
	 OFFSET 0 -1 0
	 }
}
ROOT tt
{
	 OFFSET 0 0 0
	 CHANNELS 3 XPosition YPosition Z Position
	 EndSite
	 {
	 OFFSET 0 -1 0
	 }
}
ROOT tb
{
	 OFFSET 0 0 0
	 CHANNELS 3 XPosition YPosition Z Position
	 EndSite
	 {
	 OFFSET 0 -1 0
	 }
}
ROOT td
{
	 OFFSET 0 0 0
	 CHANNELS 3 XPosition YPosition Z Position
	 EndSite
	 {
	 OFFSET 0 -1 0
	 }
}
ROOT v
{
	 OFFSET 0 0 0
	 CHANNELS 3 XPosition YPosition Z Position
	 EndSite
	 {
	 OFFSET 0 -1 0
	 }
}
ROOT bn
{
	 OFFSET 0 0 0
	 CHANNELS 3 XPosition YPosition Z Position
	 EndSite
	 {
	 OFFSET 0 -1 0
	 }
}
MOTION
Frames: 21
Frame Time: 0.002
-0.027691967010498048	0.002132209062576294	0		0.5717350463867188	-2.577674072265625	0		-0.8882471313476562	0.40770065307617187	0		-0.24166969299316407	-3.150688720703125	0		1.51854931640625	-0.70605908203125	0		3.18628955078125	-0.10751737213134765	0		4.511025390625	0.13180612182617188	0		5.9127802734375	0.330818603515625	0		-0.3201395263671875	5.9147392578125	0		
0.04616999053955078	-0.002642374038696289	0		0.5997545166015625	-2.57891259765625	0		-0.8933995361328125	0.40375787353515624	0		-0.2345224914550781	-3.142734130859375	0		1.5128802490234374	-0.6708796997070312	0		3.193536376953125	-0.07740262603759765	0		4.5230947265625	0.14692901611328124	0		5.9034716796875	0.33681866455078124	0		-0.28645452880859373	5.9193916015625	0		
-0.022893739700317384	-0.0018689370155334473	0		0.5420172119140625	-2.55923583984375	0		-0.8934860229492188	0.4037294311523438	0		-0.2382482452392578	-3.124689453125	0		1.5410721435546875	-0.6501069946289062	0		3.20363623046875	-0.062354557037353514	0		4.521119140625	0.15617037963867186	0		5.91547265625	0.31969003295898435	0		-0.2867939453125	5.91939111328125	0		
0.042015151977539064	-0.005599892139434815	0		0.5451201171875	-2.55526318359375	0		-0.9575655517578125	0.40337255859375	0		-0.35787185668945315	-3.097405517578125	0		1.523420166015625	-0.615861572265625	0		3.219109375	-0.014397570610046387	0		4.53643994140625	0.1911866912841797	0		5.90703466796875	0.35494265747070314	0		-0.32018609619140626	5.91272216796875	0		
-0.02491166114807129	0.00608420181274414	0		0.5433751220703125	-2.537266845703125	0		-0.9625790405273438	0.4083377380371094	0		-0.22669970703125	-3.089898681640625	0		1.561753173828125	-0.5832608032226563	0		3.22421142578125	-3.629229962825775E-4	0		4.5485439453125	0.20620138549804687	0		5.91414794921875	0.358572509765625	0		-0.27329708862304686	5.930146484375	0		
-0.018112859725952148	-0.007068574905395508	0		0.5335186767578125	-2.528212890625	0		-0.9626550903320312	0.40822171020507814	0		-0.36128695678710937	-3.05751904296875	0		1.55102294921875	-0.5551550903320313	0		3.252585205078125	0.03938657760620117	0		4.541650390625	0.22238717651367187	0		5.90558056640625	0.36601007080078124	0		-0.3076634826660156	5.9244287109375	0		
-0.0280919246673584	0.001935173988342285	0		0.5625277099609375	-2.529609375	0		-0.8937957763671875	0.403333740234375	0		-0.2331980438232422	-3.05402294921875	0		1.621450439453125	-0.5109584045410156	0		3.255690185546875	0.0563770866394043	0		4.55980126953125	0.24426541137695312	0		5.91756689453125	0.34688714599609377	0		-0.28901718139648436	5.92010791015625	0		
-0.035256916046142575	-0.004118253231048584	0		0.53757568359375	-2.524447265625	0		-0.962864013671875	0.4079169921875	0		-0.3987771606445312	-3.015370361328125	0		1.625724609375	-0.47807208251953126	0		3.26487841796875	0.0832699737548828	0		4.56576708984375	0.25123985290527345	0		5.90966015625	0.34898086547851564	0		-0.3233876953125	5.9153359375	0		
-0.02335799026489258	-0.0023995969295501707	0		0.535733642578125	-2.506559326171875	0		-0.8781124877929688	0.39681927490234375	0		-0.3526697387695312	-3.004030517578125	0		1.638070068359375	-0.43629898071289064	0		3.298902099609375	0.09686399841308593	0		4.580861328125	0.2720823364257812	0		5.9095751953125	0.3490720520019531	0		-0.307626708984375	5.92300146484375	0		
-0.02137466812133789	0.00840677547454834	0		0.5427734375	-2.4977890625	0		-0.949115966796875	0.4103819274902344	0		-0.383419189453125	-2.97688134765625	0		1.63245361328125	-0.38935699462890627	0		3.3004189453125	0.15778193664550783	0		4.5820185546875	0.30004220581054686	0		5.91116796875	0.4078779602050781	0		-0.3220634460449219	5.91197216796875	0		
0.04840255355834961	-5.303230285644531E-4	0		0.5280003051757812	-2.470802978515625	0		-0.8843497924804687	0.4014722900390625	0		-0.3454493103027344	-2.97548681640625	0		1.6417269287109375	-0.35259759521484374	0		3.307387939453125	0.16761111450195312	0		4.61096142578125	0.3076720886230469	0		5.90184765625	0.41846231079101565	0		-0.32433016967773437	5.91479638671875	0		
-0.023740942001342774	-0.002963444948196411	0		0.4790556640625	-2.460470458984375	0		-0.9584711303710938	0.40203717041015624	0		-0.3911361083984375	-2.942209228515625	0		1.8149625244140626	-0.32160836791992187	0		3.3184384765625	0.18337191772460937	0		4.605923828125	0.31563653564453126	0		5.91156103515625	0.3748607177734375	0		-0.30564715576171875	5.90938232421875	0		
0.04113890075683594	-0.006872231006622314	0		0.5070226745605468	-2.460974365234375	0		-0.8886109619140625	0.39705496215820313	0		-0.38206173706054686	-2.933530029296875	0		1.7953121337890625	-0.2815744018554687	0		3.35851806640625	0.19880059814453124	0		4.63696875	0.3281890563964844	0		5.90365576171875	0.3749126586914063	0		-0.29075375366210937	5.91899951171875	0		
-0.025782758712768555	0.004613976001739502	0		0.48712213134765625	-2.451979248046875	0		-0.9586143188476562	0.4015564270019531	0		-0.4038684387207031	-2.916530517578125	0		1.7877218017578125	-0.23968516540527343	0		3.36484375	0.23357002258300782	0		4.6509833984375	0.33389849853515624	0		5.9072685546875	0.39191690063476564	0		-0.3239668579101562	5.913119140625	0		
0.05221030426025391	0.002551609992980957	0		0.519207763671875	-2.448545654296875	0		-0.9586121826171875	0.40130828857421874	0		-0.4025829162597656	-2.8947822265625	0		1.7712017822265624	-0.19571400451660156	0		3.416930419921875	0.2408341827392578	0		4.66620849609375	0.35457418823242187	0		5.91317041015625	0.4347679443359375	0		-0.325036865234375	5.91389111328125	0		
-0.025709856033325196	0.004141423225402832	0		0.4943556823730469	-2.443512939453125	0		-0.9634986572265625	0.4061117248535156	0		-0.40528253173828127	-2.875994384765625	0		1.7576197509765625	-0.16278480529785155	0		3.4152578125	0.26565576171875	0		4.6823427734375	0.36122039794921873	0		5.92454443359375	0.4151539306640625	0		-0.32405169677734375	5.912638671875	0		
0.04835749435424805	-0.001883126974105835	0		0.51358447265625	-2.435950927734375	0		-0.968419677734375	0.40191656494140626	0		-0.4069429016113281	-2.8582177734375	0		1.797997802734375	-0.1394356231689453	0		3.441548095703125	0.28116769409179687	0		4.688400390625	0.35495623779296875	0		5.90895068359375	0.41695849609375	0		-0.2909151306152344	5.91804541015625	0		
-0.02844347381591797	-3.078539967536926E-4	0		0.479931640625	-2.421829345703125	0		-0.9682376708984375	0.40167080688476564	0		-0.3945960998535156	-2.84458837890625	0		1.814520751953125	-0.10783811187744141	0		3.434974853515625	0.3040180358886719	0		4.70671923828125	0.367548828125	0		5.905591796875	0.43398712158203123	0		-0.33992892456054685	5.9023232421875	0		
0.05282453536987305	0.0015945789813995362	0		0.4951559753417969	-2.4242265625	0		-0.967997802734375	0.4014291687011719	0		-0.48207907104492187	-2.818898193359375	0		1.82995166015625	-0.09023323059082031	0		3.48818017578125	0.300225341796875	0		4.72594775390625	0.36611907958984374	0		5.905763671875	0.4335966796875	0		-0.3226179504394531	5.90990234375	0		
-0.010933367729187012	-0.0029637789726257324	0		0.4926161193847656	-2.408432373046875	0		-0.9626641235351563	0.40513986206054686	0		-0.3875397644042969	-2.79613134765625	0		1.841517822265625	-0.06458841705322266	0		3.50492626953125	0.3428155822753906	0		4.74623828125	0.36566888427734373	0		5.91899072265625	0.474371337890625	0		-0.32232418823242187	5.909666015625	0		
0.05344807815551758	0.0011260310411453248	0		0.4810060119628906	-2.402538818359375	0		-0.978277099609375	0.41007977294921877	0		-0.460988525390625	-2.774579345703125	0		1.8380618896484375	-0.04478396224975586	0		3.496185791015625	0.33567010498046873	0		4.75164501953125	0.3723709716796875	0		5.9096982421875	0.4153641357421875	0		-0.3239444274902344	5.9124560546875	0		
